<svg xmlns="http://www.w3.org/2000/svg" width="24" height="24" viewBox="0 0 24 24" fill="none">
  <path d="M12 21 C12 18 9 14 4 11 C2 10 1 12 3 16 C5 20 8 21 12 21 Z" fill="#688c53" />
  <path d="M12 21 C12 17 15 12 21 10 C23 9 24 11 22 15 C20 19 16 21 12 21 Z" fill="#688c53" />
  <path d="M12 21 L8 14 M9 17 L6 15 M10 14 L8 12" stroke="#1a3525" strokeWidth="1" strokeLinecap="round" />
  <path d="M12 21 L17 13 M15 17 L18 15 M14 14 L17 12" stroke="#1a3525" strokeWidth="1" strokeLinecap="round" />
</svg>